<svg xmlns="http://www.w3.org/2000/svg" preserveAspectRatio="meet" viewBox="0 0 300 78">
 <g>
  <title>background</title>
  <rect fill="none" stroke="none" id="canvas_background" height="80" width="302" y="-1" x="-1"/><!--fill="url(#gridpattern)"-->
 </g>
 <g>
  <title>Layer 1</title>
  <g stroke="null" id="svg_26">
   <g stroke="null" transform="matrix(1.0260974198694879,0,0,1.0260974198694879,-657.6576303387591,-172.61072107652885) " id="svg_24">
    <title stroke="null" transform="translate(0,0.3093843162059784) translate(0,-0.3093843162059784) translate(0,-0.3093843162059784) translate(0,-0.3093843162059784) translate(0.3122828006744385,2.842170943040401e-14) translate(0.3122828006744385,2.842170943040401e-14) translate(0.3122828006744385,2.842170943040401e-14) translate(0.3122828006744385,2.842170943040401e-14) translate(0.3122828006744385,2.842170943040401e-14) translate(0.3122828006744385,2.842170943040401e-14) translate(0.3122828006744385,2.842170943040401e-14) translate(0.3122828006744385,2.842170943040401e-14) translate(0.3122828006744385,2.842170943040401e-14) translate(0.3122828006744385,2.842170943040401e-14) translate(-0.37515580654144287,0) translate(-0.37515580654144287,0) translate(0.37515580654144287,0) translate(0.37515580654144287,0) translate(0.37515580654144287,0) translate(0.37515580654144287,0) translate(0.37515580654144287,0) translate(0.37515580654144287,0) translate(0.37515580654144287,0) translate(0.37515580654144287,0) translate(-3.7515580654144287,0) translate(-0.37515580654144287,0) translate(-0.37515580654144287,0) translate(-0.37515580654144287,0) translate(-0.37515580654144287,0) translate(-0.37515580654144287,0) translate(-0.37515580654144287,0) translate(-0.37515580654144287,0) translate(-0.37515580654144287,0) translate(-0.37515580654144287,0) translate(-0.37515580654144287,0) translate(-0.37515580654144287,0) translate(-0.37515580654144287,0) translate(-0.37515580654144287,0) translate(-0.37515580654144287,0) translate(-0.37515580654144287,0) translate(-0.37515580654144287,0) translate(-0.37515580654144287,0) translate(-0.37515580654144287,0) translate(-0.37515580654144287,0) translate(-0.37515580654144287,0) translate(-0.37515580654144287,0) translate(-0.37515580654144287,0) translate(0,-5.0625) translate(0,-5.0625) translate(0,-5.0625) translate(0,-5.0625) translate(0,-5.0625) translate(0,-5.0625) translate(0,-5.0625) translate(0,-5.0625) translate(0,-5.0625) translate(0,-5.0625) translate(0,-5.0625) translate(0,-5.0625) translate(0,-5.0625) translate(0,-5.0625) translate(0,-5.0625) translate(0,-5.0625) translate(0,-5.0625) translate(0,-5.0625) translate(0,50.625) translate(0,-50.625) translate(0,-50.625) translate(0,-50.625) translate(0,-50.625) translate(0,-50.625) translate(0,-50.625) translate(0,-50.625) translate(0,-50.625) translate(0,-50.625) translate(0,-50.625) translate(0,-50.625) translate(0,-50.625) translate(0,-50.625) translate(0,-50.625) translate(0,-50.625) translate(0,-5.0625) translate(-50.625,0) translate(-50.625,0) translate(-50.625,0) translate(-50.625,0) translate(-50.625,0) translate(-50.625,0) translate(-50.625,0) translate(-50.625,0) translate(-50.625,0) translate(50.625,0) translate(-50.625,0) translate(-50.625,0) translate(-50.625,0) translate(-5.0625,0) translate(-5.0625,0) translate(-5.0625,0) translate(-5.0625,0) translate(-5.0625,0) translate(-5.0625,0) translate(-5.0625,0) translate(-5.0625,0) translate(-5.0625,0) translate(-5.0625,0) translate(-5.0625,0) translate(-5.0625,0) translate(-5.0625,0) translate(-5.0625,0) translate(-5.0625,0) translate(-5.0625,0) translate(-5.0625,0) translate(-5.0625,0) translate(-5.0625,0) translate(-5.0625,0) translate(-5.0625,0) translate(-5.0625,0) translate(-5.0625,0) translate(0.0001544952392578125,0) translate(-1.8749542236328125,0) translate(1319.125,0) translate(0,973.7244873046875) ">background</title>
    <rect stroke="null" x="636.306477" y="167.168219" width="300" height="78" id="svg_22" fill="none"/>
    <g stroke="null" id="svg_20" display="none">
     <rect stroke="null" id="svg_21" width="300" height="78" x="638.306477" y="169.168219" stroke-width="0" fill="url(#gridpattern)"/>
    </g>
   </g>
   <g stroke="null" transform="matrix(1.0260974198694879,0,0,1.0260974198694879,-657.6576303387591,-172.61072107652885) " id="svg_25">
    <title stroke="null" transform="translate(0,0.3093843162059784) translate(0,-0.3093843162059784) translate(0,-0.3093843162059784) translate(0,-0.3093843162059784) translate(0.3122828006744385,2.842170943040401e-14) translate(0.3122828006744385,2.842170943040401e-14) translate(0.3122828006744385,2.842170943040401e-14) translate(0.3122828006744385,2.842170943040401e-14) translate(0.3122828006744385,2.842170943040401e-14) translate(0.3122828006744385,2.842170943040401e-14) translate(0.3122828006744385,2.842170943040401e-14) translate(0.3122828006744385,2.842170943040401e-14) translate(0.3122828006744385,2.842170943040401e-14) translate(0.3122828006744385,2.842170943040401e-14) translate(-0.37515580654144287,0) translate(-0.37515580654144287,0) translate(0.37515580654144287,0) translate(0.37515580654144287,0) translate(0.37515580654144287,0) translate(0.37515580654144287,0) translate(0.37515580654144287,0) translate(0.37515580654144287,0) translate(0.37515580654144287,0) translate(0.37515580654144287,0) translate(-3.7515580654144287,0) translate(-0.37515580654144287,0) translate(-0.37515580654144287,0) translate(-0.37515580654144287,0) translate(-0.37515580654144287,0) translate(-0.37515580654144287,0) translate(-0.37515580654144287,0) translate(-0.37515580654144287,0) translate(-0.37515580654144287,0) translate(-0.37515580654144287,0) translate(-0.37515580654144287,0) translate(-0.37515580654144287,0) translate(-0.37515580654144287,0) translate(-0.37515580654144287,0) translate(-0.37515580654144287,0) translate(-0.37515580654144287,0) translate(-0.37515580654144287,0) translate(-0.37515580654144287,0) translate(-0.37515580654144287,0) translate(-0.37515580654144287,0) translate(-0.37515580654144287,0) translate(-0.37515580654144287,0) translate(-0.37515580654144287,0) translate(0,-5.0625) translate(0,-5.0625) translate(0,-5.0625) translate(0,-5.0625) translate(0,-5.0625) translate(0,-5.0625) translate(0,-5.0625) translate(0,-5.0625) translate(0,-5.0625) translate(0,-5.0625) translate(0,-5.0625) translate(0,-5.0625) translate(0,-5.0625) translate(0,-5.0625) translate(0,-5.0625) translate(0,-5.0625) translate(0,-5.0625) translate(0,-5.0625) translate(0,50.625) translate(0,-50.625) translate(0,-50.625) translate(0,-50.625) translate(0,-50.625) translate(0,-50.625) translate(0,-50.625) translate(0,-50.625) translate(0,-50.625) translate(0,-50.625) translate(0,-50.625) translate(0,-50.625) translate(0,-50.625) translate(0,-50.625) translate(0,-50.625) translate(0,-50.625) translate(0,-5.0625) translate(-50.625,0) translate(-50.625,0) translate(-50.625,0) translate(-50.625,0) translate(-50.625,0) translate(-50.625,0) translate(-50.625,0) translate(-50.625,0) translate(-50.625,0) translate(50.625,0) translate(-50.625,0) translate(-50.625,0) translate(-50.625,0) translate(-5.0625,0) translate(-5.0625,0) translate(-5.0625,0) translate(-5.0625,0) translate(-5.0625,0) translate(-5.0625,0) translate(-5.0625,0) translate(-5.0625,0) translate(-5.0625,0) translate(-5.0625,0) translate(-5.0625,0) translate(-5.0625,0) translate(-5.0625,0) translate(-5.0625,0) translate(-5.0625,0) translate(-5.0625,0) translate(-5.0625,0) translate(-5.0625,0) translate(-5.0625,0) translate(-5.0625,0) translate(-5.0625,0) translate(-5.0625,0) translate(-5.0625,0) translate(0.0001544952392578125,0) translate(-1.8749542236328125,0) translate(1319.125,0) translate(0,973.7244873046875) ">Layer 1</title>
    <defs stroke="null" transform="translate(0,0.3093843162059784) translate(0,-0.3093843162059784) translate(0,-0.3093843162059784) translate(0,-0.3093843162059784) translate(0.3122828006744385,2.842170943040401e-14) translate(0.3122828006744385,2.842170943040401e-14) translate(0.3122828006744385,2.842170943040401e-14) translate(0.3122828006744385,2.842170943040401e-14) translate(0.3122828006744385,2.842170943040401e-14) translate(0.3122828006744385,2.842170943040401e-14) translate(0.3122828006744385,2.842170943040401e-14) translate(0.3122828006744385,2.842170943040401e-14) translate(0.3122828006744385,2.842170943040401e-14) translate(0.3122828006744385,2.842170943040401e-14) translate(-0.37515580654144287,0) translate(-0.37515580654144287,0) translate(0.37515580654144287,0) translate(0.37515580654144287,0) translate(0.37515580654144287,0) translate(0.37515580654144287,0) translate(0.37515580654144287,0) translate(0.37515580654144287,0) translate(0.37515580654144287,0) translate(0.37515580654144287,0) translate(-3.7515580654144287,0) translate(-0.37515580654144287,0) translate(-0.37515580654144287,0) translate(-0.37515580654144287,0) translate(-0.37515580654144287,0) translate(-0.37515580654144287,0) translate(-0.37515580654144287,0) translate(-0.37515580654144287,0) translate(-0.37515580654144287,0) translate(-0.37515580654144287,0) translate(-0.37515580654144287,0) translate(-0.37515580654144287,0) translate(-0.37515580654144287,0) translate(-0.37515580654144287,0) translate(-0.37515580654144287,0) translate(-0.37515580654144287,0) translate(-0.37515580654144287,0) translate(-0.37515580654144287,0) translate(-0.37515580654144287,0) translate(-0.37515580654144287,0) translate(-0.37515580654144287,0) translate(-0.37515580654144287,0) translate(-0.37515580654144287,0) translate(0,-5.0625) translate(0,-5.0625) translate(0,-5.0625) translate(0,-5.0625) translate(0,-5.0625) translate(0,-5.0625) translate(0,-5.0625) translate(0,-5.0625) translate(0,-5.0625) translate(0,-5.0625) translate(0,-5.0625) translate(0,-5.0625) translate(0,-5.0625) translate(0,-5.0625) translate(0,-5.0625) translate(0,-5.0625) translate(0,-5.0625) translate(0,-5.0625) translate(0,50.625) translate(0,-50.625) translate(0,-50.625) translate(0,-50.625) translate(0,-50.625) translate(0,-50.625) translate(0,-50.625) translate(0,-50.625) translate(0,-50.625) translate(0,-50.625) translate(0,-50.625) translate(0,-50.625) translate(0,-50.625) translate(0,-50.625) translate(0,-50.625) translate(0,-50.625) translate(0,-5.0625) translate(-50.625,0) translate(-50.625,0) translate(-50.625,0) translate(-50.625,0) translate(-50.625,0) translate(-50.625,0) translate(-50.625,0) translate(-50.625,0) translate(-50.625,0) translate(50.625,0) translate(-50.625,0) translate(-50.625,0) translate(-50.625,0) translate(-5.0625,0) translate(-5.0625,0) translate(-5.0625,0) translate(-5.0625,0) translate(-5.0625,0) translate(-5.0625,0) translate(-5.0625,0) translate(-5.0625,0) translate(-5.0625,0) translate(-5.0625,0) translate(-5.0625,0) translate(-5.0625,0) translate(-5.0625,0) translate(-5.0625,0) translate(-5.0625,0) translate(-5.0625,0) translate(-5.0625,0) translate(-5.0625,0) translate(-5.0625,0) translate(-5.0625,0) translate(-5.0625,0) translate(-5.0625,0) translate(-5.0625,0) translate(0.0001544952392578125,0) translate(-1.8749542236328125,0) translate(1319.125,0) translate(0,973.7244873046875) ">
     <style stroke="null">.cls-1{fill:#6799c9;}</style>
    </defs>
    <ellipse stroke="null" class="cls-1" cx="5318.92278" cy="1401.311356" rx="2.81" ry="2.79" id="svg_19" transform="matrix(1.9388948163431738,0,0,1.9388948163431738,-9529.77664986842,-2477.8990988134583) "/>
    <path stroke="null" class="cls-1" d="m908.152647,220.211389l-37.94417,0a3.41246,3.41246 0 0 1 -2.67567,-3.35429c0,-2.17156 2.57873,-3.06345 2.57873,-3.06345l41.70562,0a4.42068,4.42068 0 0 0 3.56757,-4.05229a4.30435,4.30435 0 0 0 -3.99412,-4.34313l-41.82196,0a11.63337,11.63337 0 0 0 -9.69448,8.33725a21.32784,21.32784 0 0 0 -40.32901,6.47591l0,-11.63337c-0.38778,-3.25734 -4.01351,-3.31551 -4.01351,-3.31551a7.34841,7.34841 0 0 0 -4.84724,2.85018c-13.92126,11.63337 -17.45005,12.04053 -28.44359,12.4477s-21.61867,-7.8913 -21.61867,-7.8913c-2.86957,-2.48178 -7.60047,-6.34019 -7.60047,-6.34019a4.69212,4.69212 0 0 0 -2.67568,-1.06639l-54.28905,0l-10.41187,-28.19153a9.79142,9.79142 0 0 0 -9.9853,-7.13513a9.57814,9.57814 0 0 0 -9.69448,7.13513l-24.54641,66.40715l11.28437,0l20.78495,-58.90363a2.2879,2.2879 0 0 1 2.32668,-1.70622a2.32667,2.32667 0 0 1 2.443,1.70622l20.3584,58.90363l11.47826,0l-10.91598,-29.68448l19.17567,0a20.49412,20.49412 0 0 0 -2.86956,9.09341l0,16.98472a4.28496,4.28496 0 0 0 3.87779,3.54818a4.16862,4.16862 0 0 0 4.44006,-3.35429l0,-17.13983a8.97708,8.97708 0 0 1 8.16275,-9.13219l14.15393,0l0,26.17508a3.87779,3.87779 0 0 0 4.0329,3.5094a3.87779,3.87779 0 0 0 4.32374,-3.56757l0,-21.28906c14.9101,12.35076 28.48236,10.66392 28.48236,10.66392c18.86545,0 28.2497,-10.76087 28.2497,-10.76087l0,21.44418a4.16862,4.16862 0 0 0 4.32374,3.5094a3.97473,3.97473 0 0 0 4.12984,-3.45123l0,-6.70858c0,-2.15217 0,-3.37368 0,-5.2544c0,-0.19389 0,-0.48473 0,-0.67862a21.32784,21.32784 0 0 0 42.40363,-2.81139a10.89659,10.89659 0 0 0 7.50352,3.87779l37.7309,0a3.74207,3.74207 0 0 1 2.50117,2.96651a3.21856,3.21856 0 0 1 -2.40423,3.45123l-41.84135,0a4.80846,4.80846 0 0 0 -3.45123,3.87779a4.44007,4.44007 0 0 0 3.35429,4.7309l42.4424,0a11.47826,11.47826 0 0 0 10.04348,-11.63337c-0.01939,-9.69447 -9.79142,-11.63337 -9.79142,-11.63337l0,0zm-67.43476,17.04289a13.84371,13.84371 0 1 1 13.78554,-13.84371a13.80493,13.80493 0 0 1 -13.78554,13.84371z" id="svg_18"/>
    <ellipse stroke="null" class="cls-1" cx="5263.62278" cy="1393.221356" rx="6.33" ry="6.35" id="svg_17" transform="matrix(1.9388948163431738,0,0,1.9388948163431738,-9529.77664986842,-2477.8990988134583) "/>
    <g stroke="null" id="svg_13">
     <g stroke="null" id="svg_14" transform="matrix(0.018116072550250273,0,0,0.018116072550250273,0,0) ">
      <path stroke="null" fill="#5686BD" d="m51475.147336,13127.149445c-0.115,165.982 -134.686,300.345 -300.691,300.253c-165.567,-0.116 -300.045,-134.778 -299.929,-300.368c0.115,-166.214 134.709,-300.415 301.131,-300.23c165.243,0.185 299.582,134.917 299.489,300.345zm-300.275,-239.393c-132.259,0 -239.3,107.041 -239.37,239.277c-0.069,131.981 107.064,239.301 238.977,239.393c132.375,0.069 239.625,-107.019 239.694,-239.277c0.046,-132.167 -107.135,-239.393 -239.301,-239.393z" id="svg_16"/>
      <path stroke="null" fill="#5686BD" d="m51227.156336,13130.223445c4.276,1.803 8.668,3.352 12.806,5.432c10.309,5.293 18.236,13.291 25.102,22.514c7.258,9.8 12.967,20.548 18.376,31.504c14.192,28.685 28.453,57.37 42.691,86.055c0.231,0.485 0.462,0.993 0.786,1.664c-0.693,0 -1.202,0 -1.664,0c-27.645,0 -55.313,-0.023 -82.934,0c-1.248,0 -1.85,-0.394 -2.404,-1.479c-12.805,-26.143 -25.68,-52.284 -38.6,-78.403c-3.884,-7.905 -8.368,-15.394 -14.031,-22.213c-7.975,-9.615 -18.283,-14.954 -30.557,-16.11c-7.72,-0.717 -15.533,-0.509 -23.276,-0.693c-3.005,-0.093 -5.986,0 -9.176,0c0,39.595 0,79.143 0,118.783c-27.113,0 -54.064,0 -81.062,0c0,-104.66 0,-209.321 0,-314.19c0.439,0 0.902,0 1.387,0c42.992,0.047 85.984,-0.092 128.931,0.116c18.26,0.092 36.312,1.918 53.971,6.888c12.713,3.583 24.57,8.945 34.787,17.544c10.956,9.223 17.82,21.011 21.172,34.786c4.646,19.255 4.693,38.555 -0.994,57.67c-4.645,15.464 -14.053,27.529 -27.158,36.798c-8.16,5.687 -17.059,9.754 -26.488,12.759c-0.602,0.183 -1.203,0.413 -1.665,0.575zm-102.812,-108.312c0,27.021 0,53.855 0,80.783c0.508,0 0.901,0 1.317,0c11.673,0 23.369,0.069 35.041,-0.046c7.188,-0.023 14.285,-0.878 21.219,-2.959c10.817,-3.328 18.515,-9.938 21.751,-21.033c3.004,-10.379 3.143,-20.85 0.531,-31.32c-2.889,-11.695 -10.17,-19.207 -21.82,-22.513c-7.188,-2.034 -14.538,-2.797 -21.981,-2.843c-9.592,-0.116 -19.231,-0.069 -28.823,-0.069c-2.358,-0.024 -4.739,0 -7.235,0z" id="svg_15"/>
     </g>
    </g>
   </g>
  </g>
 </g>
</svg>